<svg width="141" height="40" viewBox="0 0 141 40" fill="none" xmlns="http://www.w3.org/2000/svg">
<rect x="5" y="7.5" width="25" height="25" rx="12.5" fill="#005161"/>
<path d="M19.4633 24.8201L19.5147 22.332C19.8376 22.2932 20.1254 22.2063 20.3782 22.0713C20.6349 21.9365 20.8545 21.761 21.037 21.5451C21.2195 21.3291 21.3611 21.0782 21.4617 20.7923C21.5623 20.5102 21.616 20.2026 21.6229 19.8693C21.6353 19.2672 21.4966 18.7396 21.2066 18.2865C20.9205 17.8335 20.4959 17.4781 19.9329 17.2202C19.3738 16.9624 18.6908 16.8251 17.8842 16.8085C17.0548 16.7913 16.3555 16.9 15.7861 17.1345C15.2167 17.3728 14.7834 17.7124 14.4864 18.1533C14.1893 18.5942 14.0347 19.1082 14.0226 19.6952C14.0158 20.0247 14.053 20.3304 14.1343 20.6125C14.2156 20.8983 14.3372 21.1528 14.4993 21.3759C14.6652 21.599 14.8678 21.7851 15.1072 21.934C15.3466 22.0867 15.6209 22.1947 15.9303 22.2579L15.8675 24.7458C15.3348 24.6703 14.8231 24.4987 14.3323 24.231C13.8453 23.9671 13.4111 23.6152 13.03 23.1754C12.6526 22.7395 12.3564 22.2219 12.1414 21.6226C11.9302 21.0272 11.8323 20.3565 11.8477 19.6105C11.8692 18.5728 12.1232 17.6498 12.6097 16.8415C13.0961 16.037 13.7892 15.4073 14.6889 14.9523C15.5886 14.5011 16.6709 14.2885 17.9357 14.3147C19.2044 14.3409 20.2788 14.6018 21.1589 15.0973C22.039 15.5929 22.7035 16.2545 23.1524 17.0821C23.6051 17.9099 23.8209 18.835 23.7997 19.8575C23.7858 20.5316 23.6782 21.1545 23.477 21.7262C23.2756 22.3017 22.9886 22.8092 22.6158 23.2485C22.2468 23.688 21.7981 24.0424 21.2696 24.3118C20.7412 24.5851 20.139 24.7545 19.4633 24.8201Z" fill="white"/>
<rect x="0.5" y="3" width="34" height="34" rx="17" stroke="#005161"/>
<path d="M41.932 10.4H46.664V23.224C46.664 24.2133 46.9253 25.016 47.448 25.632C47.9707 26.248 48.7547 26.556 49.8 26.556C50.864 26.556 51.6573 26.248 52.18 25.632C52.7027 25.016 52.964 24.2133 52.964 23.224V10.4H57.696V23.56C57.696 24.792 57.4907 25.8653 57.08 26.78C56.688 27.6947 56.128 28.4507 55.4 29.048C54.6907 29.6267 53.8507 30.0653 52.88 30.364C51.928 30.6627 50.9013 30.812 49.8 30.812C48.6987 30.812 47.672 30.6627 46.72 30.364C45.768 30.0653 44.928 29.6267 44.2 29.048C43.4907 28.4507 42.9307 27.6947 42.52 26.78C42.128 25.8653 41.932 24.792 41.932 23.56V10.4ZM69.6568 22.16C69.6568 21.3947 69.5075 20.8067 69.2088 20.396C68.9288 19.9853 68.4528 19.78 67.7808 19.78C67.3328 19.78 66.9408 19.8733 66.6048 20.06C66.2688 20.2467 66.0075 20.5173 65.8208 20.872C65.6341 21.2267 65.5408 21.656 65.5408 22.16V30H61.2848V17.12H65.5408V19.052C65.9141 18.3427 66.4181 17.792 67.0528 17.4C67.7061 17.008 68.5088 16.812 69.4608 16.812C71.0661 16.812 72.2328 17.2413 72.9608 18.1C73.6888 18.9587 74.0528 20.1627 74.0528 21.712V30H69.6568V22.16ZM77.1383 12.276C77.1383 11.604 77.3809 11.0627 77.8663 10.652C78.3516 10.2227 78.9303 10.008 79.6023 10.008C80.2929 10.008 80.8716 10.2227 81.3383 10.652C81.8236 11.0627 82.0663 11.604 82.0663 12.276C82.0663 12.948 81.8236 13.4987 81.3383 13.928C80.8716 14.3573 80.2929 14.572 79.6023 14.572C78.9303 14.572 78.3516 14.3573 77.8663 13.928C77.3809 13.4987 77.1383 12.948 77.1383 12.276ZM77.5583 17.12H81.6463V30H77.5583V17.12ZM83.3926 17.12H87.9006L90.8686 24.26L93.8086 17.12H98.3166L90.8686 31.512L83.3926 17.12ZM98.728 23.56C98.728 22.1973 99.0454 21.012 99.68 20.004C100.315 18.996 101.192 18.212 102.312 17.652C103.432 17.092 104.692 16.812 106.092 16.812C107.492 16.812 108.743 17.092 109.844 17.652C110.964 18.212 111.841 18.996 112.476 20.004C113.129 21.012 113.456 22.1973 113.456 23.56C113.456 24.904 113.129 26.08 112.476 27.088C111.841 28.096 110.964 28.88 109.844 29.44C108.743 30 107.492 30.28 106.092 30.28C104.692 30.28 103.432 30 102.312 29.44C101.192 28.88 100.315 28.096 99.68 27.088C99.0454 26.08 98.728 24.904 98.728 23.56ZM103.068 23.56C103.068 24.232 103.208 24.8107 103.488 25.296C103.768 25.7627 104.132 26.1267 104.58 26.388C105.028 26.6493 105.532 26.78 106.092 26.78C106.633 26.78 107.128 26.6493 107.576 26.388C108.043 26.1267 108.407 25.7627 108.668 25.296C108.948 24.8107 109.088 24.232 109.088 23.56C109.088 22.888 108.948 22.3093 108.668 21.824C108.407 21.3387 108.043 20.9653 107.576 20.704C107.128 20.4427 106.633 20.312 106.092 20.312C105.532 20.312 105.028 20.4427 104.58 20.704C104.132 20.9653 103.768 21.3387 103.488 21.824C103.208 22.3093 103.068 22.888 103.068 23.56ZM120.172 17.12V30H116V17.12H120.172ZM123.896 21.488C123.672 21.264 123.429 21.0867 123.168 20.956C122.925 20.8253 122.617 20.76 122.244 20.76C121.833 20.76 121.469 20.872 121.152 21.096C120.834 21.32 120.592 21.6467 120.424 22.076C120.256 22.5053 120.172 23.028 120.172 23.644L119.164 22.16C119.164 21.1333 119.36 20.2187 119.752 19.416C120.162 18.6133 120.694 17.9787 121.348 17.512C122.001 17.0453 122.682 16.812 123.392 16.812C123.858 16.812 124.306 16.9053 124.736 17.092C125.165 17.2787 125.492 17.54 125.716 17.876L123.896 21.488ZM130.787 25.968C130.787 26.304 130.871 26.5933 131.039 26.836C131.207 27.06 131.431 27.2373 131.711 27.368C131.991 27.48 132.299 27.536 132.635 27.536C133.121 27.536 133.569 27.4333 133.979 27.228C134.39 27.0227 134.726 26.7147 134.987 26.304C135.249 25.8933 135.379 25.3893 135.379 24.792L135.827 26.472C135.827 27.2933 135.603 27.9933 135.155 28.572C134.707 29.132 134.129 29.5613 133.419 29.86C132.71 30.14 131.945 30.28 131.123 30.28C130.302 30.28 129.537 30.1307 128.827 29.832C128.137 29.5147 127.577 29.048 127.147 28.432C126.737 27.816 126.531 27.0693 126.531 26.192C126.531 24.96 126.97 23.9893 127.847 23.28C128.725 22.552 129.966 22.188 131.571 22.188C132.355 22.188 133.055 22.2627 133.671 22.412C134.306 22.5613 134.847 22.748 135.295 22.972C135.743 23.196 136.079 23.4293 136.303 23.672V25.548C135.855 25.212 135.333 24.96 134.735 24.792C134.157 24.6053 133.541 24.512 132.887 24.512C132.383 24.512 131.982 24.568 131.683 24.68C131.385 24.792 131.161 24.96 131.011 25.184C130.862 25.3893 130.787 25.6507 130.787 25.968ZM128.911 21.068L127.483 18.24C128.211 17.8853 129.089 17.5493 130.115 17.232C131.142 16.9147 132.262 16.756 133.475 16.756C134.614 16.756 135.631 16.924 136.527 17.26C137.423 17.5773 138.133 18.044 138.655 18.66C139.178 19.276 139.439 20.032 139.439 20.928V30H135.379V21.88C135.379 21.5627 135.323 21.292 135.211 21.068C135.118 20.8253 134.969 20.62 134.763 20.452C134.558 20.284 134.297 20.1627 133.979 20.088C133.681 20.0133 133.335 19.976 132.943 19.976C132.365 19.976 131.795 20.0413 131.235 20.172C130.694 20.3027 130.218 20.4613 129.807 20.648C129.397 20.816 129.098 20.956 128.911 21.068Z" fill="#005161"/>
</svg>
