<svg width="77" height="37" viewBox="0 0 77 37" fill="none" xmlns="http://www.w3.org/2000/svg">
<path d="M7.32 34.88C6.57333 34.88 5.96 34.8 5.48 34.64C5.48 34.08 4.62667 31.2667 2.92 26.2C1.24 21.1067 0.4 18.0267 0.4 16.96C0.4 16.9067 0.533333 16.8 0.8 16.64C1.09333 16.4533 1.58667 16.2667 2.28 16.08C2.97333 15.8933 3.76 15.8 4.64 15.8C6.26667 22.4133 7.49333 26.64 8.32 28.48C8.34667 28.6133 8.4 28.6133 8.48 28.48C8.96 27.6267 9.69333 25.3733 10.68 21.72C11.6667 18.04 12.2133 15.64 12.32 14.52C12.3467 14.36 12.64 14.2267 13.2 14.12C13.76 13.9867 14.4933 13.92 15.4 13.92C16.3067 13.92 16.92 14.0533 17.24 14.32C17.24 15.0933 16.2933 18.5467 14.4 24.68C12.5067 30.7867 11.4533 33.9467 11.24 34.16C10.8667 34.5333 9.84 34.76 8.16 34.84L7.32 34.88ZM35.8163 25.68C35.8163 28.2133 35.0429 30.4133 33.4963 32.28C31.9763 34.12 29.8963 35.04 27.2563 35.04C24.6429 35.04 22.5896 34.2267 21.0963 32.6C19.6029 30.9733 18.8563 28.8667 18.8563 26.28C18.8563 23.6667 19.7763 21.36 21.6163 19.36C23.4829 17.3333 25.9896 16.32 29.1363 16.32C30.4163 16.3733 31.1096 16.4533 31.2163 16.56C31.3229 16.6667 31.3763 16.92 31.3763 17.32C31.3763 17.72 31.3363 18.16 31.2563 18.64C31.6563 18.64 32.1629 18.88 32.7763 19.36C33.4163 19.8133 33.9363 20.28 34.3363 20.76C34.7363 21.24 35.0829 21.92 35.3763 22.8C35.6696 23.6533 35.8163 24.6133 35.8163 25.68ZM29.9763 22.88C29.3629 22.48 28.7629 22.28 28.1763 22.28H27.8563C27.8029 22.1733 27.7763 21.9467 27.7763 21.6C27.7763 21.2533 27.8163 20.92 27.8963 20.6C26.8029 20.6 25.7763 21.0933 24.8163 22.08C23.8829 23.0667 23.4163 24.44 23.4163 26.2C23.4163 28.28 24.0829 29.72 25.4163 30.52C25.9229 30.84 26.6163 31 27.4963 31C28.4029 31 29.2429 30.5867 30.0163 29.76C30.8163 28.9333 31.2163 27.7067 31.2163 26.08C31.2163 24.4533 30.8029 23.3867 29.9763 22.88ZM39.1113 28.6L39.0313 19.52C39.0313 17.9467 39.0846 17.1067 39.1913 17C39.4846 16.7067 39.9913 16.4533 40.7113 16.24C41.4313 16 42.0979 15.88 42.7113 15.88C43.3513 15.88 43.6713 15.9467 43.6713 16.08C43.5913 16.8 43.5513 17.6267 43.5513 18.56C43.5513 19.4667 43.5779 19.92 43.6313 19.92C43.6846 19.92 43.7379 19.8933 43.7913 19.84C43.8446 19.76 43.9246 19.6533 44.0313 19.52C44.1646 19.36 44.4179 19.0933 44.7913 18.72C45.1913 18.3467 45.6179 18.0267 46.0713 17.76C47.2179 17.0133 48.4446 16.64 49.7513 16.64C49.9646 16.9867 50.0713 17.52 50.0713 18.24C50.0713 19.76 49.8846 20.84 49.5113 21.48L49.3513 21.8L48.8313 21.72C46.9113 21.72 45.4046 22.5067 44.3113 24.08C43.8846 24.72 43.6713 25.2 43.6713 25.52V29.04C43.6713 32.24 43.6313 33.88 43.5513 33.96C42.8046 34.68 41.3379 35.04 39.1513 35.04C38.9379 35.04 38.8313 35 38.8313 34.92C39.0179 33.88 39.1113 31.7733 39.1113 28.6ZM65.1472 25.08C65.1472 28.4133 65.1872 30.36 65.2672 30.92C65.4805 32.3867 65.9339 33.44 66.6272 34.08C66.6272 34.3733 66.0939 34.8133 65.0272 35.4C63.9872 35.9867 63.0405 36.28 62.1872 36.28C61.9472 36.28 61.6939 35.92 61.4272 35.2C61.1605 34.5067 61.0005 33.9867 60.9472 33.64C60.9205 33.2933 60.8939 33.12 60.8672 33.12L60.7472 33.2C59.3339 34.32 57.6805 34.88 55.7872 34.88C53.8939 34.88 52.4272 34.4267 51.3872 33.52C50.3739 32.5867 49.8672 31.3733 49.8672 29.88C49.8672 28.3867 50.1872 27.1333 50.8272 26.12C51.4939 25.08 52.2672 24.2933 53.1472 23.76C54.0272 23.2267 55.0005 22.8 56.0672 22.48C57.6939 21.9467 58.9739 21.68 59.9072 21.68L59.9872 21.64C59.9872 20.3333 58.3339 19.68 55.0272 19.68C53.7205 19.68 52.7472 19.7333 52.1072 19.84H52.0672C52.0672 19.3067 52.2272 18.64 52.5472 17.84C52.8939 17.04 53.1739 16.52 53.3872 16.28C53.6272 16.04 54.5872 15.92 56.2672 15.92C59.3072 15.92 61.5472 16.5067 62.9872 17.68C64.4272 18.8267 65.1472 20.6133 65.1472 23.04V25.08ZM60.7072 27.64V26.12C60.7072 25.5333 60.6939 25.24 60.6672 25.24C58.8805 25.24 57.3339 25.7067 56.0272 26.64C55.2005 27.2267 54.7872 27.96 54.7872 28.84C54.7872 29.4 54.9872 29.8667 55.3872 30.24C55.7872 30.6133 56.3872 30.8 57.1872 30.8C58.0139 30.8 58.8005 30.56 59.5472 30.08C60.3205 29.6 60.7072 28.7867 60.7072 27.64Z" fill="white"/>
<path d="M77 33.5C77 35.433 75.433 37 73.5 37C71.567 37 70 35.433 70 33.5C70 31.567 71.567 30 73.5 30C75.433 30 77 31.567 77 33.5Z" fill="#FF7F56"/>
</svg>
